PathFileType	4	(X/Y/Z)	C:/Users/beibeiliu/ov580/test_trc/User2\sequence.12_training_dense_left.trc
DataRate	CameraRate	NumFrames	NumMarkers	Units	OrigDataRate	OrigDataStartFrame	OrigNumFrames
120	120	7	19	mm	120	391	446
Frame#	Time	ThumbCMC			ThumbMCP			ThumbIP			ThumbTip			IndexMCP			IndexPIP			IndexTip			MiddleMCP			MiddlePIP			MiddleTip			RingMCP			RingPIP			RingTip			PinkyMCP			PinkyPIP			PinkyTip			BackHand1			BackHand2			BackHand3	
		X0	Y0	Z0	X1	Y1	Z1	X2	Y2	Z2	X3	Y3	Z3	X4	Y4	Z4	X5	Y5	Z5	X6	Y6	Z6	X7	Y7	Z7	X8	Y8	Z8	X9	Y9	Z9	X10	Y10	Z10	X11	Y11	Z11	X12	Y12	Z12	X13	Y13	Z13	X14	Y14	Z14	X15	Y15	Z15	X16	Y16	Z16	X17	Y17	Z17	X18	Y18	Z18	
390	3.25	-133.008	-40.1342	103.648	-128.423	-62.4164	77.3704	-130.135	-84.2827	50.3713	-145.233	-99.8275	32.9723	-177.274	-42.6386	36.93	-179.809	-69.9981	19.3316	-172.037	-101.613	25.9437	-209.312	-35.0173	39.8494	-219.32	-44.5863	11.1202	-228.138	-56.6723	-14.9922	-234.324	-44.9367	59.2011	-247.519	-50.938	35.8615	-262.659	-59.25	11.255	-238.991	-55.2997	88.0948	-260.271	-55.4788	71.6627	-276.598	-52.0449	60.8013	-206.038	-31.7374	107.977	-199.697	-25.0815	141.212	-173.172	-15.0134	109.457	
391	3.25833	-139.645	-42.2016	109.117	-130.279	-63.7914	79.2419	-135.319	-86.1983	49.1339	-151.416	-101.82	35.1315	-180.171	-43.1324	38.296	-177.243	-71.1121	18.7711	-172.692	-107.114	29.8074	-212.277	-34.2598	42.415	-221.261	-43.7545	12.6182	-234.328	-59.77	-15.3908	-233.532	-42.7069	58.3776	-251.069	-50.9834	42.4534	-265.083	-59.2617	14.2178	-242.185	-56.5591	89.2111	-263.402	-57.1156	73.1927	-280.407	-53.3596	60.716	-212.714	-32.3332	110.168	-196.466	-24.2372	143.018	-176.118	-16.9174	112.693	
392	3.26667	-136.906	-42.2869	109.586	-126.352	-65.5297	81.2196	-131.761	-85.6971	57.6597	-143.384	-102.114	40.7572	-178.663	-43.6881	38.0267	-174.116	-71.5751	20.246	-169.572	-106.225	31.4063	-207.507	-33.8252	44.223	-221.163	-43.647	15.2523	-227.216	-58.2905	-16.0755	-229.409	-43.3052	60.3147	-243.24	-48.4442	38.2349	-256.403	-56.3881	11.8858	-240.756	-56.1968	85.6462	-255.995	-58.7711	70.8155	-274.554	-54.6468	55.7638	-207.143	-33.5911	111.152	-199.196	-26.0336	140.109	-176.268	-17.1735	112.622	
393	3.275	-133.436	-42.8096	116.32	-119.392	-64.5043	86.3887	-124.411	-85.1496	56.0749	-140.791	-100.574	42.0294	-171.43	-43.4988	40.1281	-164.684	-71.2379	21.7014	-161.357	-105.045	33.4861	-201.34	-34.0043	44.12	-209.324	-42.5352	11.077	-213.335	-54.0342	-17.7483	-222.769	-43.6641	61.2814	-236.763	-48.9476	35.3845	-245.986	-54.147	4.61273	-234.819	-57.8316	83.8001	-251.611	-58.0026	62.8374	-270.677	-53.8261	47.9388	-207.299	-35.6772	112.1	-196.23	-29.2455	141.571	-172.863	-18.3707	118.215	
394	3.28333	-130.43	-42.2823	119.391	-112.014	-63.5538	91.9124	-115.477	-82.3189	60.4023	-123.977	-98.8029	41.7673	-157.857	-39.0898	41.6717	-150.306	-68.7484	22.1199	-146.261	-98.0075	32.7667	-188.444	-30.459	44.4356	-193.834	-37.3356	12.3424	-198.047	-51.3714	-21.1742	-211.377	-40.5283	56.5619	-222.185	-44.2774	28.7529	-232.351	-49.9284	3.61647	-226.452	-57.8531	80.3002	-239.626	-58.3497	57.9631	-257.28	-55.0334	39.4915	-199.19	-35.6066	108.954	-193.455	-29.9702	139.949	-166.077	-17.5234	117.659	
395	3.29167	-122.453	-43.3602	121.647	-108.627	-62.8278	96.1844	-105.194	-80.6764	66.9115	-112.436	-95.5862	44.7788	-143.798	-35.8802	44.3969	-140.336	-63.4052	24.7447	-135.956	-93.9646	32.5983	-177.481	-27.7608	41.3092	-178.653	-33.6893	10.6747	-179.728	-43.4344	-18.6642	-201.558	-38.9964	51.6237	-207.199	-40.3234	27.6431	-212.131	-44.0709	-4.74265	-213.51	-54.7856	72.653	-230.424	-57.0519	50.7546	-241.336	-50.6018	28.0745	-191.741	-35.8836	106.2	-192.356	-33.4935	141.66	-163.757	-19.6442	121.521	
396	3.3	-118.15	-46.1609	127.978	-100.877	-64.0137	101.157	-93.3575	-79.9684	67.7304	-103.497	-93.9437	45.6508	-133.342	-34.099	47.8839	-127.696	-60.4729	26.6666	-125.264	-95.751	35.153	-166.501	-25.3648	46.7366	-163.801	-28.5201	8.63625	-164.811	-38.2934	-22.6624	-189.307	-34.407	50.9577	-194.557	-34.5357	26.5673	-196.208	-35.206	-7.41249	-206.675	-53.2913	68.372	-218.178	-52.6478	46.3348	-223.081	-45.8663	26.222	-187.44	-35.0075	107.772	-191.28	-34.1572	140.723	-156.97	-21.1885	120.671	
